<?xml version="1.0" standalone="no"?>
<!DOCTYPE svg PUBLIC "-//W3C//DTD SVG 20010904//EN"
 "http://www.w3.org/TR/2001/REC-SVG-20010904/DTD/svg10.dtd">
<svg version="1.0" xmlns="http://www.w3.org/2000/svg"
 width="453.000000pt" height="453.000000pt" viewBox="0 0 453.000000 453.000000"
 preserveAspectRatio="xMidYMid meet">
<metadata>
Created by potrace 1.11, written by Peter Selinger 2001-2013
</metadata>
<g transform="translate(0.000000,453.000000) scale(0.100000,-0.100000)"
fill="#000000" stroke="none">
<path d="M850 3797 c-19 -7 -42 -17 -51 -23 -69 -40 -148 -148 -164 -224 -2
-8 -38 -152 -80 -320 -42 -168 -78 -312 -80 -320 -2 -8 -13 -53 -24 -99 -36
-144 -24 -220 48 -311 20 -24 203 -212 407 -417 204 -204 376 -378 383 -386 9
-12 4 -44 -25 -158 -19 -79 -37 -151 -39 -159 -2 -8 -8 -34 -14 -58 l-12 -42
-228 0 -228 0 24 93 c13 50 26 101 28 112 3 11 7 32 11 48 l6 27 -341 0 c-322
0 -341 -1 -341 -18 0 -10 -27 -128 -60 -262 -69 -275 -73 -327 -33 -407 27
-55 80 -106 138 -133 38 -18 77 -19 711 -20 758 0 735 -2 817 75 25 23 52 56
61 72 24 47 239 912 239 963 0 62 -31 127 -87 180 -26 25 -215 213 -420 419
l-373 373 29 117 c15 64 34 139 42 166 8 28 20 76 27 108 12 54 14 57 43 57
123 2 429 1 431 -2 1 -2 -8 -48 -22 -103 -13 -55 -30 -125 -37 -155 l-13 -55
328 0 c180 0 330 3 334 6 5 5 55 195 69 263 3 11 20 82 39 156 51 201 40 284
-49 373 -77 76 -30 72 -784 74 -522 2 -683 -1 -710 -10z"/>
<path d="M2933 3787 c-77 -33 -136 -93 -175 -177 -12 -26 -361 -1401 -383
-1510 -2 -8 -13 -53 -25 -100 -12 -47 -23 -92 -25 -100 -2 -8 -51 -205 -109
-438 -118 -470 -122 -500 -80 -588 30 -64 103 -128 164 -144 26 -7 267 -10
717 -8 l678 3 53 29 c65 36 126 109 137 164 2 9 91 368 198 797 108 429 197
791 199 805 l3 25 -482 1 c-266 0 -483 -1 -483 -3 0 -2 45 -94 101 -204 l100
-201 -16 -67 c-8 -36 -17 -73 -19 -81 -3 -8 -41 -163 -86 -345 -45 -181 -83
-338 -86 -347 -5 -17 -25 -18 -238 -18 l-233 0 109 433 c60 237 113 450 117
472 18 78 220 891 230 920 5 17 15 56 22 88 7 31 16 57 21 57 4 1 87 1 183 1
293 0 274 1 270 -18 -2 -10 -18 -74 -34 -143 -17 -69 -33 -132 -34 -140 -3
-13 36 -15 327 -15 l331 0 12 38 c7 21 15 51 18 65 3 15 29 124 59 242 39 157
53 230 51 272 -4 101 -65 190 -160 234 l-50 24 -665 -1 c-664 0 -665 0 -717
-22z"/>
</g>
</svg>
